<svg class="canvas" viewBox="0 0 1920 1080" preserveAspectRatio="xMaxYMid slice" xmlns="http://www.w3.org/2000/svg" version="1.1" xmlns:xlink="http://www.w3.org/1999/xlink" xmlns:svgjs="http://svgjs.com/svgjs"><rect width="1920" height="1080" fill="hsl(289, 65%, 15%)"></rect><defs><linearGradient x1="0.5" y1="0" x2="0" y2="1" id="SvgjsLinearGradient1406"><stop stop-color="#65288a" offset="0"></stop><stop stop-color="#14060b" offset="0.1"></stop></linearGradient><linearGradient x1="0.5" y1="0" x2="0" y2="1" id="SvgjsLinearGradient1407"><stop stop-color="#65288a" offset="0"></stop><stop stop-color="#14060b" offset="0.22857142857142856"></stop></linearGradient><linearGradient x1="0.5" y1="0" x2="0" y2="1" id="SvgjsLinearGradient1408"><stop stop-color="#3d288a" offset="0"></stop><stop stop-color="#140611" offset="0.3571428571428571"></stop></linearGradient><linearGradient x1="0.5" y1="0" x2="0" y2="1" id="SvgjsLinearGradient1409"><stop stop-color="#c1c0f2" offset="0"></stop><stop stop-color="#d742d4" offset="0.48571428571428565"></stop></linearGradient><linearGradient x1="0.5" y1="0" x2="0" y2="1" id="SvgjsLinearGradient1410"><stop stop-color="#c1c0f2" offset="0"></stop><stop stop-color="#d742d4" offset="0.6142857142857142"></stop></linearGradient><linearGradient x1="0.5" y1="0" x2="0" y2="1" id="SvgjsLinearGradient1411"><stop stop-color="#d5c0f2" offset="0"></stop><stop stop-color="#d74299" offset="0.7428571428571429"></stop></linearGradient><linearGradient x1="0.5" y1="0" x2="0" y2="1" id="SvgjsLinearGradient1412"><stop stop-color="#e8c0f2" offset="0"></stop><stop stop-color="#d7425d" offset="0.8714285714285713"></stop></linearGradient></defs><path d="M0,-519.4863822392256C34.783872278227044,-499.2166654098141,136.6632716944636,-418.81280892329943,208.70323366936225,-397.8680812627566C280.74319564426094,-376.9233536022138,357.41397231204763,-408.20135873425147,432.23977184939196,-393.8180162759687C507.0655713867363,-379.43467381768596,559.5954482681207,-338.79869751974064,657.6580308934283,-311.56802651306026C755.720613518736,-284.3373555063799,920.2493689620646,-251.82610728595256,1020.6152676012375,-230.43399023588654C1120.9811662404104,-209.04187318582052,1182.7672874299735,-205.96552768439918,1259.8534227284658,-183.21532421266423C1336.9395580269581,-160.46512074092928,1406.7259940037056,-109.76368999287273,1483.132079392191,-93.93276940547688C1559.5381647806762,-78.10184881808102,1645.4786149580757,-107.304198549331,1718.2899350593773,-88.22980068828912C1791.1012551606789,-69.15540282724723,1886.3816558432295,2.389714685930535,1920,20.513617760774466L 1920 1080 L 0 1080 Z" fill="url(#SvgjsLinearGradient1406)"></path><path d="M0,-425.01449966058374C41.802929463259495,-408.9045718241941,154.81741578142788,-356.1922243869826,250.81757677955696,-328.3549326422459C346.81773777768603,-300.5176408975092,478.3231954912062,-286.1196345670472,576.0009659887745,-257.9907491921636C673.6787364863428,-229.86186381727998,746.6462224271561,-179.70838259252068,836.8841997649668,-159.58162039294407C927.1221771027774,-139.45485819336747,1026.5564225741605,-156.42356218294634,1117.4288300156381,-137.23017599470404C1208.3012374571158,-118.03678980646174,1293.5863263600493,-69.49101755228033,1382.1186444138334,-44.4213032634903C1470.6509624676175,-19.351588974700274,1558.975845740648,-15.760643243400686,1648.6227383383425,13.188109738036125C1738.269630936037,42.13686271947294,1874.7704563897237,109.92403047728149,1920,129.27121462513057L 1920 1080 L 0 1080 Z" fill="url(#SvgjsLinearGradient1407)"></path><path d="M0,-314.3422874209884C54.53402999173546,-296.22929269150274,223.2698874001635,-233.35695155002796,327.20417995041277,-205.66431904407455C431.13847250066203,-177.97168653812113,509.2244230917207,-184.81502116657504,623.6057553014957,-148.18649238526785C737.9870875112707,-111.55796360396067,901.2570130522355,-26.168246072160407,1013.4921732090628,14.106853643768574C1125.72733336589,54.381953359697555,1206.901746729935,78.8633746821069,1297.0167162424596,93.46410591030603C1387.1316857549841,108.06483713850517,1450.3514429912861,74.91706847294103,1554.1819902842096,101.71124101296338C1658.0125375771331,128.50541355298574,1859.030331714035,228.80949112752742,1920,254.22914115044023L 1920 1080 L 0 1080 Z" fill="url(#SvgjsLinearGradient1408)"></path><path d="M0,-149.05771242933042C60.40844040497876,-129.6926962761475,262.457935234412,-65.56492956595997,362.4506424298726,-32.86761551023283C462.44334962533316,-0.17030145450568313,504.58856813295967,24.565424563017736,599.9562431727635,47.12617190503247C695.3239182125673,69.6869192470472,821.7696719060851,77.44005454674924,934.6566926686954,102.49686854185558C1047.5437134313056,127.55368253696192,1163.2535132527403,161.57402232730664,1277.2783677484251,197.4670558756705C1391.30322224411,233.36008942403436,1511.6855476008757,278.466340740015,1618.8058196428049,317.8550698320387C1725.926091684734,357.24379892406233,1869.8009699404674,414.4753703285168,1920,433.79943042781247L 1920 1080 L 0 1080 Z" fill="url(#SvgjsLinearGradient1409)"></path><path d="M0,13.697522608791957C52.08026065894277,22.003099515335037,226.53882659752725,29.45833267728638,312.48156395365663,63.53098404805044C398.424301309786,97.6036354188145,439.90102717728865,184.89367932606444,515.6564241367764,218.13343083337634C591.4118210962642,251.37318234068823,665.017128338907,241.43419499471733,767.0139457105834,262.9694930919219C869.0107630822597,284.5047911891264,1022.08964363264,313.6707506831868,1127.6373283668343,347.3452194166037C1233.1850131010285,381.0196881500206,1323.058992098632,438.48348587376137,1400.300054115749,465.01630549242327C1477.541116132866,491.5491251110852,1504.4670428221605,482.2381247520376,1591.0837004695356,506.54213712857523C1677.7003581169108,530.8461495051129,1865.1806167449226,593.4573393144701,1920,610.8403797516492L 1920 1080 L 0 1080 Z" fill="url(#SvgjsLinearGradient1410)"></path><path d="M0,82.03852872445403C36.69325143248542,100.61668563159846,120.97979816646068,154.5038482437894,220.1595085949125,193.50747016732063C319.3392190233643,232.51109209085186,495.92580303773303,288.0285587314522,595.0782625707109,316.06026026564143C694.2307221036888,344.09196179983064,725.3780114050936,344.9428182611321,815.0742657927797,361.6976793724559C904.7705201804657,378.4525404837797,1032.6662983714434,384.61948335084264,1133.2557888968272,416.5894269335842C1233.845279422211,448.55937051632577,1334.5450024455358,531.7533005013539,1418.6112089450826,553.5173408689053C1502.6774154446293,575.2813812364567,1554.0882293849545,523.8487092582061,1637.6530278941075,547.1736691388928C1721.2178264032605,570.4986290195795,1872.9421713156846,669.0848616506701,1920,693.4671001530255L 1920 1080 L 0 1080 Z" fill="url(#SvgjsLinearGradient1411)"></path><path d="M0,209.84139218072755C65.45481761491085,230.17412581380995,263.26237043266076,288.1774084354359,392.7289056894651,331.83779397922194C522.1954409462694,375.498179523008,654.2065380258945,426.16211885687017,776.799211540826,471.8037054434439C899.3918850557576,517.4452920300176,996.6855696304779,563.4115152711463,1128.2849467790543,605.6873134986644C1259.8843239276307,647.9631117261824,1434.4429655621273,687.1471007424943,1566.3954744322848,725.4584948085525C1698.3479833024423,763.7698888746106,1861.065912405381,817.2061473806032,1920,835.5556778950133L 1920 1080 L 0 1080 Z" fill="url(#SvgjsLinearGradient1412)"></path></svg>