<svg class="canvas" viewBox="0 0 1920 1080" preserveAspectRatio="xMaxYMid slice" xmlns="http://www.w3.org/2000/svg" version="1.1" xmlns:xlink="http://www.w3.org/1999/xlink" xmlns:svgjs="http://svgjs.com/svgjs"><rect width="1920" height="1080" fill="hsl(292, 65%, 15%)"></rect><defs><linearGradient x1="0.5" y1="0" x2="0" y2="1" id="SvgjsLinearGradient1168"><stop stop-color="#8a2870" offset="0"></stop><stop stop-color="#140906" offset="0.1"></stop></linearGradient><linearGradient x1="0.5" y1="0" x2="0" y2="1" id="SvgjsLinearGradient1169"><stop stop-color="#7d288a" offset="0"></stop><stop stop-color="#140608" offset="0.22857142857142856"></stop></linearGradient><linearGradient x1="0.5" y1="0" x2="0" y2="1" id="SvgjsLinearGradient1170"><stop stop-color="#6a288a" offset="0"></stop><stop stop-color="#14060a" offset="0.3571428571428571"></stop></linearGradient><linearGradient x1="0.5" y1="0" x2="0" y2="1" id="SvgjsLinearGradient1171"><stop stop-color="#f2c0ee" offset="0"></stop><stop stop-color="#d74c42" offset="0.48571428571428565"></stop></linearGradient><linearGradient x1="0.5" y1="0" x2="0" y2="1" id="SvgjsLinearGradient1172"><stop stop-color="#f2c0e4" offset="0"></stop><stop stop-color="#d76942" offset="0.6142857142857142"></stop></linearGradient><linearGradient x1="0.5" y1="0" x2="0" y2="1" id="SvgjsLinearGradient1173"><stop stop-color="#f2c0ee" offset="0"></stop><stop stop-color="#d74c42" offset="0.7428571428571429"></stop></linearGradient><linearGradient x1="0.5" y1="0" x2="0" y2="1" id="SvgjsLinearGradient1174"><stop stop-color="#f2c0ee" offset="0"></stop><stop stop-color="#d74c42" offset="0.8714285714285713"></stop></linearGradient></defs><path d="M0,-549.7020165509263C50.96135179468089,-539.8776140203636,207.85528781427894,-516.4660948975375,305.7681107680853,-490.7556013675503C403.6809337218917,-465.04510783756314,507.1875994090354,-416.16387815483597,587.4769377228382,-395.4390553710032C667.766276036641,-374.7142325871704,698.4729840975867,-383.4109853677559,787.5041406509022,-366.40666466455343C876.5352972042176,-349.40234396135094,1030.2237824877127,-322.92353492530447,1121.6638770427305,-293.41313115178815C1213.1039715977483,-263.90272737827183,1247.5787384410644,-219.52042512104404,1336.1447079810087,-189.34424202345562C1424.710677520953,-159.1680589258672,1555.7504789458974,-142.29640347834584,1653.0596942823959,-112.35603256625761C1750.3689096188943,-82.41566165416938,1875.509949047066,-26.811019220148175,1920,-9.702016550926288L 1920 1080 L 0 1080 Z" fill="url(#SvgjsLinearGradient1168)"></path><path d="M0,-446.6586960357926C44.50312934534145,-430.455337163425,165.94675102330405,-383.51122204558965,267.0187760720487,-349.4385428015869C368.09080112079334,-315.36586355758413,484.8879335192728,-262.71102220770047,606.4321502924679,-242.22262057177613C727.976367065663,-221.73421893585183,873.683938541831,-251.80253242209864,996.2840767112192,-226.508132986041C1118.8842148806075,-201.21373354998337,1243.1523319309854,-123.33915783307896,1342.032979308797,-90.45622395543037C1440.9136266866085,-57.5732900777818,1493.2401241962216,-62.22440342104154,1589.5679609780886,-29.210529720149538C1685.8957977599557,3.8033439807424685,1864.927993496348,84.8207602549098,1920,107.62701824992166L 1920 1080 L 0 1080 Z" fill="url(#SvgjsLinearGradient1169)"></path><path d="M0,-295.9681135479105C48.08851634321195,-282.73103022070933,176.28545634171445,-242.29094378767059,288.5310980592717,-216.54561358470363C400.77673977682895,-190.80028338173668,561.3976540175447,-171.89250697623166,673.4738503053436,-141.4961323301087C785.5500465931425,-111.09975768398576,859.5906825405275,-76.07238625330348,960.9882757860651,-34.167365707965914C1062.3858690316026,7.737654837371643,1170.8178034701734,78.90541126631618,1281.8594097785688,109.93399094191663C1392.901016086964,140.9625706175171,1520.8811485995318,124.89255833203661,1627.237913636437,152.00411234563686C1733.5946786733423,179.1156663592371,1871.2063189394062,252.50344791053791,1920,272.6033150235181L 1920 1080 L 0 1080 Z" fill="url(#SvgjsLinearGradient1170)"></path><path d="M0,-203.3518912692032C67.97292254229237,-184.36805541244087,275.39625009159795,-122.6856946917876,407.8375352537542,-89.44887612862908C540.2788204159104,-56.212057565470566,669.005449506064,-44.05726649551097,794.6477109729377,-3.930979890252125C920.2899724398114,36.19530671500672,1032.9997146095652,105.7367491277048,1161.6911040549965,151.308843502924C1290.3824935004277,196.8809378781432,1440.4112316546916,231.46885168022717,1566.7960476455255,269.5015863610631C1693.1808636363594,307.5343210418991,1861.1326746075877,361.17130738346026,1920,379.5052515879397L 1920 1080 L 0 1080 Z" fill="url(#SvgjsLinearGradient1171)"></path><path d="M0,-1.557836948590733C35.5924011076083,6.372903989519686,128.20272238640666,20.832066948409096,213.5544066456498,46.02660868007178C298.90609090489295,71.22115041173447,424.65571114872193,124.55482390630264,512.1101055554589,149.60941344138539C599.5644999621958,174.6640029764681,665.0834179428493,172.2211297642959,738.2807730860715,196.35414589056822C811.4781282292936,220.48716201684053,872.0443849350074,269.63163714500473,951.294236414792,294.4075101990192C1030.5440878945765,319.1833832530337,1135.6128266604658,316.9921984700396,1213.7798819647787,345.00938421465514C1291.9469372690917,373.02656995927066,1340.3793330601673,430.34767697754324,1420.2965682406698,462.51062466671243C1500.2138034211723,494.6735723558816,1609.9993877545717,515.8080044284111,1693.2832930477934,537.9870703496701C1776.5671983410152,560.1661362709292,1882.2138821746323,585.9853618868337,1920,595.5850201942665L 1920 1080 L 0 1080 Z" fill="url(#SvgjsLinearGradient1172)"></path><path d="M0,124.12826174759255C43.20260691053451,132.88714932779263,175.72032203421173,156.51102117358764,259.2156414632071,176.6815872287931C342.7109608922024,196.85215328399855,421.70522307349995,217.9145748724735,500.9719165739722,245.15165807882525C580.2386100744444,272.388741285177,654.8679589670282,314.1147667799349,734.8158024660404,340.1040864669036C814.7636459650525,366.0934061538723,898.1120483162099,368.6030577386874,980.6589775680451,401.0875762006375C1063.2059068198803,433.5720946625876,1150.7912214375422,504.82504578118494,1230.0973779770518,535.0111972386042C1309.4035345165614,565.1973486960234,1381.5655387993315,563.7359873123504,1456.4959168051032,582.2044849451528C1531.4262948108749,600.6729825779552,1602.4289654791992,620.26345833025,1679.679646011682,645.8221830354186C1756.930326544165,671.3809077405871,1879.9466076686138,720.6010581527064,1920,735.556833176164L 1920 1080 L 0 1080 Z" fill="url(#SvgjsLinearGradient1173)"></path><path d="M0,263.0143470109786C43.10389649259381,278.76785397139196,167.54638657903376,321.2229218510128,258.6233789555629,357.53538877345875C349.700371332092,393.8478556959047,459.0305338480922,454.1602248881621,546.4619542591748,480.88914854565417C633.8933746702575,507.61807220314626,695.3906589010061,489.7074925181804,783.2119014220586,517.9089307184113C871.0331439431112,546.1103689186422,983.9458039178256,615.3371342156752,1073.3894093854901,650.0977777470393C1162.8330148531547,684.8584212784035,1222.8108429810093,692.9898555694065,1319.8735342280459,726.4727919065961C1416.9362254750824,759.9557282437856,1555.7444792390509,823.9527556337321,1655.7655568677098,850.9953957701767C1755.7866344963688,878.0380359066214,1875.9609261446183,882.4397598994165,1920,888.7286327252643L 1920 1080 L 0 1080 Z" fill="url(#SvgjsLinearGradient1174)"></path></svg>