<svg class="canvas" viewBox="0 0 1920 1080" preserveAspectRatio="xMaxYMid slice" xmlns="http://www.w3.org/2000/svg" version="1.1" xmlns:xlink="http://www.w3.org/1999/xlink" xmlns:svgjs="http://svgjs.com/svgjs"><rect width="1920" height="1080" fill="hsl(213, 65%, 15%)"></rect><defs><linearGradient x1="0.5" y1="0" x2="0" y2="1" id="SvgjsLinearGradient1091"><stop stop-color="#288a85" offset="0"></stop><stop stop-color="#060614" offset="0.1"></stop></linearGradient><linearGradient x1="0.5" y1="0" x2="0" y2="1" id="SvgjsLinearGradient1092"><stop stop-color="#287c8a" offset="0"></stop><stop stop-color="#080614" offset="0.22857142857142856"></stop></linearGradient><linearGradient x1="0.5" y1="0" x2="0" y2="1" id="SvgjsLinearGradient1093"><stop stop-color="#28548a" offset="0"></stop><stop stop-color="#0d0614" offset="0.3571428571428571"></stop></linearGradient><linearGradient x1="0.5" y1="0" x2="0" y2="1" id="SvgjsLinearGradient1094"><stop stop-color="#c0f2e5" offset="0"></stop><stop stop-color="#4267d7" offset="0.48571428571428565"></stop></linearGradient><linearGradient x1="0.5" y1="0" x2="0" y2="1" id="SvgjsLinearGradient1095"><stop stop-color="#c0f2e5" offset="0"></stop><stop stop-color="#4267d7" offset="0.6142857142857142"></stop></linearGradient><linearGradient x1="0.5" y1="0" x2="0" y2="1" id="SvgjsLinearGradient1096"><stop stop-color="#c0e0f2" offset="0"></stop><stop stop-color="#7642d7" offset="0.7428571428571429"></stop></linearGradient><linearGradient x1="0.5" y1="0" x2="0" y2="1" id="SvgjsLinearGradient1097"><stop stop-color="#c0f2ef" offset="0"></stop><stop stop-color="#4249d7" offset="0.8714285714285713"></stop></linearGradient></defs><path d="M0,-509.1337618966737C33.99987945541282,-495.26279157176936,127.21446696462625,-442.36265881785664,203.99927673247691,-425.9079399472474C280.7840865003276,-409.4532210766382,380.2700549085579,-431.64510737117587,460.708858607104,-410.4054486730186C541.1476623056501,-389.16578997486135,603.7549838144297,-319.3131744123829,686.6320989237535,-298.4699877583039C769.5092140330772,-277.62680110422485,878.1555729021487,-299.8429382831364,957.9715492630469,-285.34632874854447C1037.787525623945,-270.84971921395254,1090.541785969915,-236.8887278942886,1165.5279570891423,-211.49033055075228C1240.5141282083696,-186.09193320721596,1319.8421170211052,-157.38646939508956,1407.8885759784102,-132.95594468732662C1495.9350349357153,-108.52541997956367,1608.454806829374,-92.21087943595005,1693.8067108329724,-64.90718230417457C1779.1586148365707,-37.60348517239909,1882.301118472162,14.904001368742819,1920,30.866238103326296L 1920 1080 L 0 1080 Z" fill="url(#SvgjsLinearGradient1091)"></path><path d="M0,-369.67838499842935C57.396705756070794,-353.08460812363415,210.63463400815843,-303.19102987058375,344.3802345364248,-270.11572374965823C478.12583506469116,-237.04041762873268,662.3048248455235,-207.6122758985532,802.4736031695982,-171.2265482728761C942.6423814936728,-134.840820647199,1065.365023581424,-88.62871784660754,1185.3929044808726,-51.801357995595595C1305.4207853803211,-14.973998144583646,1400.2063726464348,10.336162952715497,1522.6408885662893,49.73761083319559C1645.0754044861437,89.13905871367568,1853.7734814277148,162.12904287827007,1920,184.60732928728495L 1920 1080 L 0 1080 Z" fill="url(#SvgjsLinearGradient1092)"></path><path d="M0,-243.16220742538889C48.38100828601753,-223.8108369788181,176.74167061606954,-162.8744114336954,290.2860497161052,-127.05398474596403C403.83042881614085,-91.23355805823266,567.508114844818,-53.47524920353872,681.2662746002138,-28.239647299000723C795.0244343556096,-3.0040453944627217,874.3358972217238,0.5379716208613168,972.83500824848,24.35962668126397C1071.3341192752362,48.18128174166662,1175.0519915387258,87.64682153254317,1272.260940760751,114.69028306341518C1369.4698899827763,141.7337445942872,1448.1321937074238,151.50057285272527,1556.088703580632,186.62039586649604C1664.0452134538402,221.7402188802668,1859.3481172634388,302.2777502661158,1920,325.4092211460397L 1920 1080 L 0 1080 Z" fill="url(#SvgjsLinearGradient1093)"></path><path d="M0,-138.45818178684075C43.58817906822142,-121.87564975614794,179.30811126566684,-68.15530418141438,261.52907440932853,-38.962989602683884C343.7500375529902,-9.770675023953391,418.9606104079452,11.795049051931894,493.32577886197015,36.695705685542215C567.6909473159951,61.59636231915253,628.6548723695745,89.73511517157118,707.7200851334782,110.44095019897804C786.7852978973818,131.1467852263849,885.7863832069846,138.55698717533173,967.7170554453922,160.93071584998336C1049.6477276837998,183.304444524635,1116.229297752632,224.07539936974288,1199.3041185639238,244.68332224688785C1282.3789393752156,265.2912451240328,1391.5543763393534,265.274008880436,1466.1659803131433,284.57825311285313C1540.7775842869332,303.8824973452703,1571.3347391255202,333.8720029818161,1646.973742406663,360.5087876413909C1722.6127456878057,387.1455723009657,1874.4956237344438,430.4172654988169,1920,444.3989610703021L 1920 1080 L 0 1080 Z" fill="url(#SvgjsLinearGradient1094)"></path><path d="M0,-29.260939254734033C78.65909920479251,-0.4647254011614095,314.0509759437418,99.52159301773898,471.95459522875507,143.5163438667017C629.8582145137684,187.51109471566443,783.289308626851,189.977662534706,947.4217157100798,234.7075658390424C1111.5541227933086,279.4374691433788,1294.652657013141,356.36670501787324,1456.7490377281276,411.89576369272004C1618.8454184431143,467.42482236756683,1842.7915062880213,541.8842255222227,1920,567.8819178881232L 1920 1080 L 0 1080 Z" fill="url(#SvgjsLinearGradient1095)"></path><path d="M0,116.20987650973905C55.93753142140657,136.12334920523324,226.02616798099632,205.34813063713224,335.6251885284394,235.6907126827042C445.2242090758825,266.03329472827613,550.982782551308,261.39295686150126,657.5941232846586,298.2653687831708C764.2054640180093,335.13778070484034,875.543962329984,422.92683925459994,975.2932329285429,456.9251842127213C1075.0425035271019,490.9235291708427,1152.8379560108142,479.1901552312767,1256.0897468760122,502.2554385318992C1359.3415377412102,525.3207218325217,1484.1522692657334,557.7530491153876,1594.8039781197313,595.3168840164561C1705.4556869737291,632.8807189175246,1865.8006630199552,705.5848539513347,1920,727.6384479383105L 1920 1080 L 0 1080 Z" fill="url(#SvgjsLinearGradient1096)"></path><path d="M0,238.7059875920922C50.93237973880855,263.63234131465157,202.27318363960313,351.10360686182037,305.5942784328513,388.2641099274483C408.91537322609946,425.42461299307627,509.22182071690594,425.65185675434867,619.926568759489,461.66900598586005C730.6313168020721,497.68615521737144,852.6177596303887,579.3916152237373,969.8227666883497,604.3670053165167C1087.0277737463107,629.3423954092962,1210.940241388293,592.0937639229481,1323.1566111072545,611.521346542537C1435.372980826216,630.9489291621259,1543.647086853327,678.782679906743,1643.1209850021178,720.9325010340499C1742.5948831509086,763.0823221613567,1873.853497500353,840.5056445943234,1920,864.420273306378L 1920 1080 L 0 1080 Z" fill="url(#SvgjsLinearGradient1097)"></path></svg>